<svg width="507.8" height="74.901" viewBox="0 0 507.8 74.901" xmlns="http://www.w3.org/2000/svg"><g id="svgGroup" stroke-linecap="round" fill-rule="evenodd" font-size="9pt" stroke="#f26931" stroke-width="0.30mm" fill="#f26931" style="stroke:#f26931;stroke-width:0.30mm;fill:#f26931"><path d="M 507.8 41.5 L 507.8 74 L 493.8 74 L 493.8 43.4 A 20.51 20.51 0 0 0 493.461 39.549 Q 493.04 37.349 492.096 35.633 A 10.388 10.388 0 0 0 490.5 33.45 A 10.912 10.912 0 0 0 484.516 30.273 A 15.901 15.901 0 0 0 481.5 30 A 15.212 15.212 0 0 0 477.593 30.475 A 10.925 10.925 0 0 0 472.45 33.45 A 11.114 11.114 0 0 0 469.812 38.056 Q 469.283 39.799 469.147 41.898 A 23.208 23.208 0 0 0 469.1 43.4 L 469.1 74 L 455.1 74 L 455.1 43.4 A 20.51 20.51 0 0 0 454.761 39.549 Q 454.34 37.349 453.396 35.633 A 10.388 10.388 0 0 0 451.8 33.45 A 10.912 10.912 0 0 0 445.816 30.273 A 15.901 15.901 0 0 0 442.8 30 A 15.741 15.741 0 0 0 438.948 30.446 A 10.949 10.949 0 0 0 433.65 33.45 A 11.114 11.114 0 0 0 431.012 38.056 Q 430.483 39.799 430.347 41.898 A 23.208 23.208 0 0 0 430.3 43.4 L 430.3 74 L 416.3 74 L 416.3 18.6 L 430.3 18.6 L 430.3 25.3 A 18.53 18.53 0 0 1 436.855 19.991 A 21.628 21.628 0 0 1 437.25 19.8 A 21.262 21.262 0 0 1 445.182 17.84 A 25.14 25.14 0 0 1 446.6 17.8 A 26.289 26.289 0 0 1 453.291 18.622 A 22.133 22.133 0 0 1 458.2 20.55 Q 463.3 23.3 466.1 28.4 A 19.803 19.803 0 0 1 473.006 21.26 A 23.777 23.777 0 0 1 473.95 20.7 Q 479.1 17.8 485.1 17.8 A 27.06 27.06 0 0 1 492.466 18.754 A 20.492 20.492 0 0 1 501.55 24.05 A 20.511 20.511 0 0 1 506.903 33.723 Q 507.8 37.256 507.8 41.5 Z M 216.5 74 L 198.3 74 L 179.5 50.4 L 179.5 74 L 165.5 74 L 165.5 0 L 179.5 0 L 179.5 42.1 L 198.1 18.6 L 216.3 18.6 L 191.9 46.4 L 216.5 74 Z M 336.9 41.5 L 336.9 74 L 322.9 74 L 322.9 43.4 A 21.16 21.16 0 0 0 322.553 39.441 Q 321.83 35.649 319.6 33.25 Q 316.3 29.7 310.6 29.7 A 15.319 15.319 0 0 0 306.748 30.158 A 10.877 10.877 0 0 0 301.45 33.25 Q 298.517 36.358 298.152 41.804 A 23.865 23.865 0 0 0 298.1 43.4 L 298.1 74 L 284.1 74 L 284.1 0 L 298.1 0 L 298.1 25.5 A 17.757 17.757 0 0 1 303.806 20.6 A 21.572 21.572 0 0 1 305.3 19.85 A 22.949 22.949 0 0 1 312.859 17.905 A 27.814 27.814 0 0 1 315.3 17.8 A 24.688 24.688 0 0 1 321.599 18.576 A 20.752 20.752 0 0 1 326.5 20.55 A 18.763 18.763 0 0 1 333.753 27.911 A 22.812 22.812 0 0 1 334.15 28.65 Q 336.9 34 336.9 41.5 Z M 388.4 18.6 L 402.5 18.6 L 402.5 74 L 388.4 74 L 388.4 67 A 18.321 18.321 0 0 1 381.954 72.354 A 21.577 21.577 0 0 1 381.35 72.65 A 21.791 21.791 0 0 1 372.297 74.697 A 25.161 25.161 0 0 1 371.9 74.7 A 26.161 26.161 0 0 1 365.596 73.969 A 21.404 21.404 0 0 1 360.4 71.95 Q 355.4 69.2 352.55 63.85 A 23.598 23.598 0 0 1 350.207 56.979 A 32.48 32.48 0 0 1 349.7 51.1 L 349.7 18.6 L 363.7 18.6 L 363.7 49.1 A 21.16 21.16 0 0 0 364.047 53.059 Q 364.77 56.851 367 59.25 Q 370.3 62.8 376 62.8 A 15.243 15.243 0 0 0 379.846 62.342 A 10.683 10.683 0 0 0 385.1 59.25 A 11.512 11.512 0 0 0 387.651 54.698 Q 388.4 52.245 388.4 49.1 L 388.4 18.6 Z M 108 56.5 L 122.1 56.5 A 7.594 7.594 0 0 0 124.915 61.533 A 10.082 10.082 0 0 0 125.25 61.8 A 10.074 10.074 0 0 0 129.662 63.694 A 13.823 13.823 0 0 0 132.1 63.9 Q 136.1 63.9 138.35 62.3 A 5.934 5.934 0 0 0 139.677 61.034 A 4.599 4.599 0 0 0 140.6 58.2 A 4.056 4.056 0 0 0 139.023 54.885 A 6.256 6.256 0 0 0 137.85 54.15 Q 135.718 53.103 131.631 51.906 A 108.128 108.128 0 0 0 129.1 51.2 A 107.558 107.558 0 0 1 124.934 50.109 Q 122.992 49.555 121.341 48.989 A 47.137 47.137 0 0 1 118.95 48.1 Q 115 46.5 112.15 43.2 A 11.205 11.205 0 0 1 109.807 38.616 Q 109.3 36.662 109.3 34.3 Q 109.3 29.7 111.95 25.9 A 16.438 16.438 0 0 1 116.549 21.516 A 21.61 21.61 0 0 1 119.55 19.9 A 24.67 24.67 0 0 1 125.487 18.152 Q 128.143 17.704 131.153 17.7 A 40.709 40.709 0 0 1 131.2 17.7 Q 139.512 17.7 145.004 21.189 A 18.718 18.718 0 0 1 147 22.65 A 17.942 17.942 0 0 1 153.305 34.204 A 24.193 24.193 0 0 1 153.5 36 L 140.1 36 A 7.933 7.933 0 0 0 139.351 33.213 A 7.119 7.119 0 0 0 137.35 30.75 Q 134.9 28.8 130.8 28.8 A 16.58 16.58 0 0 0 128.596 28.937 Q 127.486 29.086 126.58 29.398 A 6.804 6.804 0 0 0 124.95 30.2 A 4.756 4.756 0 0 0 123.553 31.628 Q 122.966 32.581 122.907 33.817 A 5.875 5.875 0 0 0 122.9 34.1 A 4.321 4.321 0 0 0 124.541 37.596 A 6.554 6.554 0 0 0 125.7 38.35 A 20.473 20.473 0 0 0 127.52 39.17 Q 129.541 39.975 132.5 40.796 A 91.144 91.144 0 0 0 134.4 41.3 Q 138.867 42.417 142.17 43.589 A 47.294 47.294 0 0 1 144.3 44.4 Q 148.2 46 151.05 49.35 A 11.889 11.889 0 0 1 153.5 54.222 Q 153.961 56.046 154 58.2 Q 154 63 151.35 66.8 A 16.208 16.208 0 0 1 146.619 71.245 A 21.269 21.269 0 0 1 143.75 72.75 Q 138.8 74.9 132.2 74.9 A 32.451 32.451 0 0 1 125.37 74.209 A 26.36 26.36 0 0 1 120 72.45 A 23.778 23.778 0 0 1 114.898 69.353 A 19.76 19.76 0 0 1 111.45 65.8 Q 108.3 61.6 108 56.5 Z M 273.8 37.3 L 258.7 37.3 A 11.816 11.816 0 0 0 256.861 33.783 A 10.582 10.582 0 0 0 254.65 31.65 A 10.689 10.689 0 0 0 250.328 29.842 A 14.707 14.707 0 0 0 247.6 29.6 A 13.32 13.32 0 0 0 243.216 30.291 A 11.172 11.172 0 0 0 238.1 33.95 A 14.401 14.401 0 0 0 235.617 38.736 Q 234.6 41.988 234.6 46.3 Q 234.6 51.854 236.33 55.653 A 13.556 13.556 0 0 0 238.1 58.55 Q 241.6 62.9 247.6 62.9 A 14.436 14.436 0 0 0 251.915 62.299 Q 256.37 60.907 258.323 56.29 A 15.032 15.032 0 0 0 258.7 55.3 L 273.8 55.3 A 27.43 27.43 0 0 1 270.013 63.928 A 24.602 24.602 0 0 1 264.7 69.6 A 24.676 24.676 0 0 1 253.743 74.382 A 33.858 33.858 0 0 1 247.7 74.9 A 30.795 30.795 0 0 1 239.708 73.898 A 25.936 25.936 0 0 1 233.5 71.35 Q 227.3 67.8 223.8 61.35 Q 220.3 54.9 220.3 46.3 A 35.706 35.706 0 0 1 221.121 38.473 A 27.831 27.831 0 0 1 223.8 31.25 Q 227.3 24.8 233.5 21.25 A 26.935 26.935 0 0 1 244.227 17.876 A 33.561 33.561 0 0 1 247.7 17.7 A 33.873 33.873 0 0 1 255.414 18.534 A 24.292 24.292 0 0 1 264.75 22.85 A 23.995 23.995 0 0 1 272.682 33.693 A 31.56 31.56 0 0 1 273.8 37.3 Z M 83.2 26.5 L 83.2 18.6 L 97.3 18.6 L 97.3 74 L 83.2 74 L 83.2 65.9 A 19.688 19.688 0 0 1 78.26 70.809 A 24.679 24.679 0 0 1 75.75 72.35 A 21.31 21.31 0 0 1 68.533 74.651 A 27.168 27.168 0 0 1 64.8 74.9 Q 57.8 74.9 52.05 71.3 A 24.734 24.734 0 0 1 43.825 62.741 A 29.952 29.952 0 0 1 42.95 61.15 Q 39.6 54.6 39.6 46.1 Q 39.6 37.7 42.95 31.2 A 26.056 26.056 0 0 1 47.774 24.539 A 23.289 23.289 0 0 1 52.05 21.2 A 24.182 24.182 0 0 1 64.678 17.701 A 28.681 28.681 0 0 1 64.9 17.7 A 26.101 26.101 0 0 1 70.372 18.249 A 20.239 20.239 0 0 1 75.75 20.2 A 23.797 23.797 0 0 1 80.508 23.525 A 20.199 20.199 0 0 1 83.2 26.5 Z M 33.1 30.1 L 20.7 30.1 L 20.7 56.9 A 9.182 9.182 0 0 0 20.807 58.352 Q 20.928 59.109 21.188 59.707 A 3.649 3.649 0 0 0 22.05 60.95 Q 23.311 62.118 26.186 62.195 A 15.469 15.469 0 0 0 26.6 62.2 L 33.1 62.2 L 33.1 74 L 24.3 74 A 26.327 26.327 0 0 1 17.403 73.177 Q 9.512 71.03 7.385 63.281 A 24.517 24.517 0 0 1 6.6 56.8 L 6.6 30.1 L 0 30.1 L 0 18.6 L 6.6 18.6 L 6.6 4.9 L 20.7 4.9 L 20.7 18.6 L 33.1 18.6 L 33.1 30.1 Z M 83.2 46.3 A 21.755 21.755 0 0 0 82.817 42.115 A 15.729 15.729 0 0 0 81.2 37.55 A 14.54 14.54 0 0 0 77.788 33.335 A 13.72 13.72 0 0 0 75.8 31.95 Q 72.4 30 68.5 30 Q 64.6 30 61.3 31.9 A 13.928 13.928 0 0 0 56.656 36.299 A 17.098 17.098 0 0 0 55.95 37.45 A 15.719 15.719 0 0 0 54.188 42.54 A 21.102 21.102 0 0 0 53.9 46.1 A 20.612 20.612 0 0 0 54.381 50.65 A 16.106 16.106 0 0 0 55.95 54.85 A 15.763 15.763 0 0 0 58.799 58.644 A 13.876 13.876 0 0 0 61.35 60.6 Q 64.7 62.6 68.5 62.6 Q 72.4 62.6 75.8 60.65 A 14.018 14.018 0 0 0 81.009 55.388 A 16.714 16.714 0 0 0 81.2 55.05 A 15.793 15.793 0 0 0 82.844 50.345 A 21.887 21.887 0 0 0 83.2 46.3 Z" vector-effect="non-scaling-stroke"/></g></svg>